<svg xmlns="http://www.w3.org/2000/svg" width="256" height="256" viewBox="0 0 100 100"><rect width="100" height="100" rx="50" fill="#fe6019"></rect><path fill="#fff" d="M83.92 31.28Q83.92 38.08 79.12 43Q74.32 47.92 65.12 50.08L65.12 50.08Q70.08 51.44 72.64 54.52Q75.20 57.60 75.20 61.60L75.20 61.60Q75.20 67.92 71.24 72.56Q67.28 77.20 59.68 79.72Q52.08 82.24 41.36 82.24L41.36 82.24Q37.36 82.24 34.96 82L34.96 82Q34.88 84.24 33.04 85.36Q31.20 86.48 28.32 86.48L28.32 86.48Q25.44 86.48 24.36 85.20Q23.28 83.92 23.44 81.44L23.44 81.44Q24.16 70.24 26.24 57.96Q28.32 45.68 31.52 34.24L31.52 34.24Q32.08 32.24 33.76 31.44Q35.44 30.64 38.16 30.64L38.16 30.64Q43.04 30.64 43.04 33.36L43.04 33.36Q43.04 34.48 42.56 35.92L42.56 35.92Q40.48 42.16 38.40 52.84Q36.32 63.52 35.44 73.20L35.44 73.20Q39.28 73.52 41.68 73.52L41.68 73.52Q52.88 73.52 58.12 70.28Q63.36 67.04 63.36 62L63.36 62Q63.36 58.48 60.36 56.08Q57.36 53.68 50.32 53.44L50.32 53.44Q48.72 53.36 48.08 52.64Q47.44 51.92 47.44 50.32L47.44 50.32Q47.44 48 48.40 46.56Q49.36 45.12 51.92 45.04L51.92 45.04Q57.60 44.88 62.20 43.36Q66.80 41.84 69.44 39.08Q72.08 36.32 72.08 32.64L72.08 32.64Q72.08 28 67.52 25.32Q62.96 22.64 53.52 22.64L53.52 22.64Q44.96 22.64 36.96 24.84Q28.96 27.04 23.36 30.40L23.36 30.40Q20.80 31.92 19.04 31.92L19.04 31.92Q17.60 31.92 16.84 30.92Q16.08 29.92 16.08 28.40L16.08 28.40Q16.08 26.40 16.92 24.96Q17.76 23.52 20.96 21.68L20.96 21.68Q27.68 17.84 36.72 15.68Q45.76 13.52 55.20 13.52L55.20 13.52Q69.68 13.52 76.80 18.40Q83.92 23.28 83.92 31.28L83.92 31.28Z"></path></svg>