<svg xmlns="http://www.w3.org/2000/svg" width="256" height="256" viewBox="0 0 100 100"><rect width="100" height="100" rx="50" fill="#d73a42"></rect><path fill="#fff" d="M25.97 86.41L25.97 86.41Q23.27 84.97 22.55 83.44Q21.83 81.91 21.83 80.83L21.83 80.83Q21.83 78.39 23.59 74.30Q25.34 70.20 28.31 64.90Q31.28 59.59 35.06 53.83L35.06 53.83Q32.27 53.65 29.75 53.56Q27.23 53.47 23.27 53.47L23.27 53.47L21.83 53.47Q23.09 50.23 25.84 48.92Q28.58 47.62 32.27 47.62L32.27 47.62Q33.80 47.62 35.47 47.80Q37.13 47.98 38.93 48.16L38.93 48.16Q43.43 41.68 47.80 35.92Q52.16 30.16 56.08 25.52Q59.99 20.89 63.05 17.92L63.05 17.92Q67.37 13.59 69.35 13.59L69.35 13.59Q70.61 13.59 72.19 14.59Q73.76 15.58 75.47 17.11L75.47 17.11Q74.57 17.83 73.17 20.80Q71.78 23.77 70.20 28.31Q68.63 32.86 67.06 38.26Q65.48 43.66 64.22 49.23Q62.96 54.82 62.20 59.90Q61.43 64.98 61.43 68.86L61.43 68.86Q61.43 72.45 62.15 74.21Q62.87 75.97 64.58 75.97L64.58 75.97Q66.65 75.97 69.71 72.81Q72.77 69.67 76.55 62.56L76.55 62.56L78.17 64.27Q75.38 71.65 70.92 76.42Q66.47 81.19 61.43 81.19L61.43 81.19Q57.11 81.19 55.31 77.45Q53.51 73.72 53.51 67.23L53.51 67.23Q53.51 65.17 53.78 62.56Q54.05 59.95 54.68 56.08L54.68 56.08Q50.72 55.45 47.66 55.09Q44.60 54.73 41.81 54.37L41.81 54.37Q37.49 62.02 33.44 70.20Q29.39 78.39 25.97 86.41ZM55.58 51.67L55.58 51.67Q56.75 46.36 58.33 40.91Q59.90 35.47 61.66 30.47Q63.41 25.48 65.12 21.52L65.12 21.52Q62.42 23.68 59.09 27.73Q55.76 31.78 52.12 37.27Q48.47 42.76 44.69 49.23L44.69 49.23Q47.39 49.78 50.09 50.41Q52.79 51.04 55.58 51.67Z"></path></svg>